PathFileType	4	(X/Y/Z)	 s07c0301.trc
DataRate	CameraRate	NumFrames	NumMarkers	Units	OrigDataRate	OrigDataStartFrame	OrigNumFrames
200	200	5	48	mm	200	1501	2000
Frame#	Time	racr			lacr			c7			jug			rlel			rdr			llel			ldr			s2			lic			ric			lasi			rasi			rpsi			lpsi			rgt			lgt			rth1			rth2			rth3			rth4			rlfc			rmfc			rsh1			rsh2			rsh3			rsh4			rlmal			rcal			rtoe			rmt5			lth1			lth2			lth4			lth3			llfc			lmfc			lsh1			lsh2			lsh3			lsh4			llmal			lcal			ltoe			lmt5			SBIKE			LBIKE			RBIKE			
		X1	Y1	Z1	X2	Y2	Z2	X3	Y3	Z3	X4	Y4	Z4	X5	Y5	Z5	X6	Y6	Z6	X7	Y7	Z7	X8	Y8	Z8	X9	Y9	Z9	X10	Y10	Z10	X11	Y11	Z11	X12	Y12	Z12	X13	Y13	Z13	X14	Y14	Z14	X15	Y15	Z15	X16	Y16	Z16	X17	Y17	Z17	X18	Y18	Z18	X19	Y19	Z19	X20	Y20	Z20	X21	Y21	Z21	X22	Y22	Z22	X23	Y23	Z23	X24	Y24	Z24	X25	Y25	Z25	X26	Y26	Z26	X27	Y27	Z27	X28	Y28	Z28	X29	Y29	Z29	X30	Y30	Z30	X31	Y31	Z31	X32	Y32	Z32	X33	Y33	Z33	X34	Y34	Z34	X35	Y35	Z35	X36	Y36	Z36	X37	Y37	Z37	X38	Y38	Z38	X39	Y39	Z39	X40	Y40	Z40	X41	Y41	Z41	X42	Y42	Z42	X43	Y43	Z43	X44	Y44	Z44	X45	Y45	Z45	X46	Y46	Z46	X47	Y47	Z47	X48	Y48	Z48	
1501	7.5050	600.709495	1518.600234	-13.027224	661.328011	1489.607334	-341.406818	622.955550	1569.816992	-178.140351	596.675725	1420.215826	-177.757932	609.429701	1166.680047	22.414465	729.609043	901.431975	-56.035587	551.476203	1157.358885	-440.301792	735.604411	924.673403	-390.862342	89.812342	1262.897408	-228.084995	263.992510	1277.860688	-358.548568	245.985540	1297.948082	-64.649851	283.258459	1197.671854	-324.031014	255.571337	1234.186596	-72.008277	116.234914	1300.215054	-178.397367	135.904961	1296.779131	-284.509983	152.315683	1177.502640	-19.729214	176.653381	1133.744169	-376.592897	186.591886	1042.668063	33.481748	215.333822	963.712957	59.513532	201.273306	883.257408	86.653843	250.866221	963.768090	49.568677	194.814943	745.702074	112.379309	201.667931	699.969956	18.706686	62.977742	686.777681	130.177321	6.917313	616.570217	129.257138	-74.116437	586.302560	125.182070	28.257843	590.614898	106.239726	-191.777846	501.807554	128.436170	-252.178513	513.042889	75.780738	-94.421331	289.212865	174.600210	-184.696654	343.230759	207.672177	189.248593	1019.028960	-394.289008	224.231291	938.086753	-397.876228	259.880786	942.931968	-386.899744	213.583132	849.704785	-395.468131	230.714685	682.209466	-375.093194	221.671733	661.884920	-287.070834	174.936129	547.167863	-403.663425	172.668718	462.299488	-388.615602	126.015416	384.787174	-395.698684	177.105398	462.936180	-346.119745	77.834163	258.525285	-392.773136	6.019189	229.973982	-361.968903	288.047215	159.823019	-357.726390	199.344320	149.224057	-423.659412	-259.717845	975.577997	-233.845651	-75.738439	83.401920	-438.457725	-82.541900	79.393575	-40.964151	
1502	7.5100	600.782829	1518.620180	-13.502411	661.679388	1489.589763	-341.727790	623.204056	1569.987486	-178.429816	596.791202	1420.307928	-178.262426	609.560015	1166.807326	21.958342	729.625666	901.423047	-56.159346	551.554224	1157.404770	-440.552631	735.589300	924.667543	-390.893323	89.921061	1263.245590	-229.246407	264.359923	1277.864639	-359.416283	245.750563	1298.699772	-65.634513	283.638313	1197.781593	-324.658679	255.350424	1235.118982	-72.924313	116.196032	1300.683067	-179.640434	136.229634	1296.945667	-285.645512	152.094128	1178.474424	-20.620013	177.102604	1133.707603	-377.230033	187.010851	1044.114171	33.167106	216.097493	965.378365	59.402040	202.499091	885.031607	87.054380	251.618997	965.507372	49.259741	196.094229	747.655330	113.397315	202.877459	701.569732	19.775226	63.352707	690.209996	130.346177	6.433415	620.706398	129.384846	-74.954381	591.470570	124.717506	27.638332	594.425403	106.691920	-193.668058	509.161039	127.913793	-253.523044	520.451090	74.017750	-99.932382	295.276591	175.416772	-188.739028	350.707201	208.342213	190.059605	1019.088247	-394.780032	225.412776	938.287888	-398.020738	260.954574	943.354400	-386.928221	215.123649	849.851053	-395.697137	232.213806	682.137205	-375.545116	222.820539	661.880433	-287.589951	175.308295	547.379151	-403.855753	172.086362	462.489024	-388.698466	124.677624	385.601358	-395.873469	176.379916	463.206951	-346.219885	75.011041	259.899297	-392.989762	2.900105	232.257370	-362.188508	284.086493	158.759133	-357.697533	197.120237	149.230049	-423.672972	-259.745038	975.595305	-233.858842	-75.750692	83.404944	-438.462843	-82.576910	79.385531	-40.967886	
1503	7.5150	600.852333	1518.659180	-13.996487	662.080602	1489.517277	-342.064594	623.448451	1570.050456	-178.849810	596.853855	1420.377175	-178.725370	609.688958	1166.939431	21.517064	729.703040	901.298529	-56.241920	551.646960	1157.441111	-440.820000	735.588715	924.702664	-390.973374	90.024680	1263.519796	-230.285385	264.753852	1277.876925	-360.354988	245.522453	1299.527254	-66.556142	284.074560	1198.005028	-325.322435	255.110412	1235.931253	-73.717341	116.293713	1301.186487	-180.876394	136.505283	1297.056461	-286.740033	151.920136	1179.519635	-21.429302	177.684547	1133.601295	-377.946336	187.375020	1045.573307	32.855254	216.930015	967.071681	59.385145	203.654092	886.854819	87.486206	252.407930	967.246081	48.972341	197.366284	749.633392	114.445066	204.033775	703.111912	20.918898	63.809540	693.690079	130.560588	5.997827	624.885913	129.509613	-75.716503	596.742226	124.286837	27.010081	598.361899	107.184517	-195.098917	515.700339	126.451927	-254.539121	527.813332	72.519069	-105.173094	300.978956	176.065617	-192.962248	357.711335	208.619818	190.936798	1019.120403	-395.325902	226.589329	938.452890	-398.102286	262.060918	943.610028	-387.029965	216.658430	849.994848	-395.894818	233.726379	681.979339	-375.625151	223.918307	661.704432	-288.068049	175.598339	547.559745	-404.005083	171.425844	462.718811	-388.782540	123.221808	386.358029	-396.059283	175.644647	463.436152	-346.272732	71.967757	261.336619	-393.195159	-0.412435	234.513199	-362.487381	279.969621	157.783648	-357.856000	194.770725	149.253523	-423.686082	-259.759439	975.588176	-233.853387	-75.754554	83.391506	-438.472817	-82.577625	79.392256	-40.965936	
1504	7.5200	600.918018	1518.744901	-14.535853	662.553229	1489.453411	-342.406517	623.698629	1570.112050	-179.334077	596.913218	1420.445787	-179.139650	609.781439	1167.113369	21.128345	729.771183	901.343508	-56.266729	551.714964	1157.467826	-441.039468	735.586263	924.717433	-391.044023	90.220528	1263.827299	-231.496908	265.188101	1277.845660	-361.208233	245.261633	1300.296629	-67.542960	284.560080	1198.123254	-325.989385	254.922851	1236.913622	-74.638320	116.341834	1301.602425	-182.158201	136.830594	1297.171285	-287.918189	151.653852	1180.611866	-22.292492	178.247400	1133.446775	-378.560692	187.701574	1047.109320	32.559719	217.638135	968.822324	59.285301	204.835805	888.684841	87.930185	253.042364	968.971682	48.771927	198.637166	751.633684	115.543852	205.226394	704.768239	21.988923	64.317940	697.154601	130.847404	5.646699	629.099811	129.703377	-76.349819	601.973023	123.895024	26.491969	602.229796	107.610082	-196.676857	522.708672	125.424212	-255.465376	535.168425	71.003725	-109.675733	307.044312	177.574164	-197.599430	365.377137	208.063846	191.797736	1019.064264	-395.889188	227.702439	938.537499	-398.266708	263.126619	943.804982	-387.092555	218.073137	850.041352	-396.119383	235.106724	681.766193	-376.029583	224.981287	661.591025	-288.478574	175.829962	547.732064	-404.090531	170.695956	462.983117	-388.797138	121.635347	387.160966	-396.258522	174.699158	463.623517	-346.352962	68.779890	262.668087	-393.164270	-3.840348	236.763738	-362.804706	275.636678	156.918576	-357.733372	192.365264	149.294696	-423.698438	-259.773314	975.578119	-233.847887	-75.760878	83.401690	-438.487680	-82.590993	79.389099	-40.959637	
1505	7.5250	601.016867	1518.846970	-15.064984	662.941423	1489.376511	-342.816242	623.967087	1570.177897	-179.875541	596.992655	1420.546463	-179.626938	609.872855	1167.242472	20.785247	729.782981	901.360736	-56.306763	551.741804	1157.441612	-441.302605	735.592477	924.734750	-391.093093	90.434320	1264.057893	-232.707284	265.709423	1277.848241	-362.072403	245.087991	1301.050344	-68.473818	285.050645	1198.181196	-326.630722	255.065858	1237.911019	-75.460617	116.466302	1302.100192	-183.438665	137.218121	1297.257226	-289.092374	151.465946	1181.729351	-23.143384	178.938477	1133.325407	-379.237791	188.017373	1048.576148	32.262254	218.432027	970.599929	59.315772	205.984414	890.591555	88.466585	253.711633	970.810673	48.599639	199.995338	753.655548	116.730628	206.488538	706.410760	23.153057	64.830702	700.736714	131.163145	5.349320	633.380561	129.844335	-76.921483	607.267855	123.484389	25.937747	605.942353	107.967619	-198.183657	529.716625	124.428305	-256.345870	542.567783	69.432953	-114.066287	313.628338	178.597566	-201.748990	372.712291	208.101932	192.686923	1018.946513	-396.439969	228.753174	938.555047	-398.539124	264.117907	943.870630	-387.340412	219.405417	850.011308	-396.357541	236.401937	681.577260	-376.190569	225.957171	661.504024	-288.802587	175.989608	547.876222	-404.163055	169.815003	463.344609	-388.857725	120.013555	387.934528	-396.362792	173.742820	463.897228	-346.361617	65.638461	264.080951	-393.363692	-7.257827	238.948371	-363.113756	271.377617	156.263905	-357.745311	189.974298	149.352339	-423.709778	-259.785822	975.570195	-233.858025	-75.755593	83.402980	-438.488034	-82.598300	79.376400	-40.978076	
